<svg xmlns="http://www.w3.org/2000/svg" width="256" height="256" viewBox="0 0 100 100"><rect width="100" height="100" rx="20" fill="#66cccc"></rect><path fill="#000033" d="M28.50 34.88L28.50 34.88Q28.85 35.42 29.13 36.32Q29.40 37.22 29.40 38.27L29.40 38.27Q29.40 40.17 28.58 41.02Q27.75 41.88 26.35 41.88L26.35 41.88L20.70 41.88L20.70 65.13Q20.15 65.27 19.00 65.42Q17.85 65.58 16.65 65.58L16.65 65.58Q14 65.58 12.97 64.67Q11.95 63.77 11.95 61.42L11.95 61.42L11.95 41.88L4.40 41.88Q4.05 41.32 3.78 40.42Q3.50 39.52 3.50 38.47L3.50 38.47Q3.50 36.57 4.33 35.72Q5.15 34.88 6.55 34.88L6.55 34.88L28.50 34.88ZM57.45 39.27L57.45 39.27Q57.45 40.57 56.80 41.52Q56.15 42.47 55.30 43.02L55.30 43.02Q54 42.17 52.53 41.57Q51.05 40.97 49.10 40.97L49.10 40.97Q45.25 40.97 43.20 43.35Q41.15 45.72 41.15 50.02L41.15 50.02Q41.15 54.47 43.38 56.75Q45.60 59.02 49.55 59.02L49.55 59.02Q51.60 59.02 53.03 58.47Q54.45 57.92 55.75 57.22L55.75 57.22Q56.60 57.92 57.08 58.90Q57.55 59.88 57.55 61.17L57.55 61.17Q57.55 62.32 56.95 63.27Q56.35 64.22 54.90 64.88L54.90 64.88Q54 65.27 52.35 65.67Q50.70 66.08 48.35 66.08L48.35 66.08Q44.95 66.08 42 65.13Q39.05 64.17 36.85 62.22Q34.65 60.27 33.40 57.25Q32.15 54.22 32.15 50.02L32.15 50.02Q32.15 46.13 33.38 43.13Q34.60 40.13 36.73 38.07Q38.85 36.02 41.70 34.97Q44.55 33.92 47.80 33.92L47.80 33.92Q52.40 33.92 54.93 35.42Q57.45 36.92 57.45 39.27ZM83.15 57.72L83.15 57.72Q82.50 58.27 81.48 58.60Q80.45 58.92 79.10 58.92L79.10 58.92Q77.30 58.92 76.13 58.47Q74.95 58.02 74.60 56.92L74.60 56.92Q73.20 52.52 72.30 49.80Q71.40 47.07 70.90 45.02L70.90 45.02L70.65 45.02Q70.50 47.97 70.43 50.40Q70.35 52.82 70.33 55.13Q70.30 57.42 70.23 59.77Q70.15 62.13 70 64.97L70 64.97Q69.35 65.22 68.30 65.40Q67.25 65.58 66.20 65.58L66.20 65.58Q64 65.58 62.78 64.88Q61.55 64.17 61.55 62.32L61.55 62.32Q61.55 60.77 61.70 57.80Q61.85 54.82 62.08 51.22Q62.30 47.63 62.55 43.82Q62.80 40.02 63 36.82L63 36.82Q63.40 36.17 64.75 35.42Q66.10 34.67 68.55 34.67L68.55 34.67Q71.20 34.67 72.70 35.50Q74.20 36.32 74.90 38.17L74.90 38.17Q75.35 39.38 75.88 40.92Q76.40 42.47 76.93 44.13Q77.45 45.77 77.95 47.40Q78.45 49.02 78.85 50.32L78.85 50.32L79.10 50.32Q80.30 46.13 81.50 42.20Q82.70 38.27 83.70 35.63L83.70 35.63Q84.45 35.22 85.63 34.95Q86.80 34.67 88.25 34.67L88.25 34.67Q90.70 34.67 92.25 35.40Q93.80 36.13 94.05 37.47L94.05 37.47Q94.25 38.47 94.47 40.55Q94.70 42.63 94.95 45.22Q95.20 47.82 95.45 50.72Q95.70 53.63 95.93 56.30Q96.15 58.97 96.30 61.20Q96.45 63.42 96.50 64.63L96.50 64.63Q95.65 65.13 94.72 65.35Q93.80 65.58 92.35 65.58L92.35 65.58Q90.45 65.58 89.15 64.92Q87.85 64.27 87.75 62.38L87.75 62.38Q87.45 56.92 87.38 52.57Q87.30 48.22 87.15 45.27L87.15 45.27L86.90 45.27Q86.40 47.22 85.45 50.17Q84.50 53.13 83.15 57.72Z"></path></svg>